<svg width="151" height="34" viewBox="0 0 151 34" fill="none" xmlns="http://www.w3.org/2000/svg">
<g clip-path="url(#clip0_12284_145174)">
<path d="M36.471 18.1767C36.0979 18.1767 35.7319 18.263 35.3731 18.4357C35.0143 18.6084 34.6913 18.8387 34.4043 19.1265C34.1172 19.4143 33.8876 19.7382 33.7153 20.0979C33.5431 20.4577 33.457 20.8247 33.457 21.1989V21.4364C33.457 21.8105 33.5431 22.1847 33.7153 22.5517C33.8876 22.9187 34.1172 23.2497 34.4043 23.5375C34.6913 23.8254 35.0143 24.0628 35.3731 24.2427C35.7319 24.4226 36.0979 24.5161 36.471 24.5161H36.6935C37.0667 24.5161 37.4327 24.4226 37.7915 24.2427C38.1503 24.0628 38.4732 23.8325 38.7603 23.5375C39.0473 23.2497 39.277 22.9259 39.4492 22.5517C39.6214 22.1847 39.7076 21.8105 39.7076 21.4364V21.1989C39.7076 20.8247 39.6214 20.4577 39.4492 20.0979C39.277 19.7382 39.0473 19.4143 38.7603 19.1265C38.4732 18.8387 38.1503 18.6084 37.7915 18.4357C37.4327 18.263 37.0667 18.1767 36.6935 18.1767H36.471ZM34.2249 27.1354C33.4713 26.7972 32.804 26.3367 32.2227 25.7538C31.6414 25.171 31.1821 24.5018 30.8376 23.7462C30.5004 22.9906 30.3281 22.1991 30.3281 21.3716C30.3281 20.5441 30.5004 19.7238 30.8376 18.961C31.1749 18.1983 31.6414 17.5291 32.2227 16.9462C32.804 16.3633 33.4713 15.9028 34.2249 15.5646C34.9784 15.2264 35.7749 15.0537 36.6146 15.0537C37.4542 15.0537 38.2292 15.2264 38.9827 15.5646C39.7363 15.9028 40.3965 16.3705 40.9634 16.9462C41.5303 17.5291 41.9824 18.1983 42.3269 18.9538C42.6642 19.7094 42.8364 20.5009 42.8364 21.3284C42.8364 22.1559 42.6642 22.9547 42.3269 23.7174C41.9824 24.4802 41.5303 25.1494 40.9634 25.7322C40.3965 26.3151 39.7363 26.7756 38.9827 27.1282C38.2292 27.4736 37.4398 27.6535 36.6146 27.6535C35.7893 27.6535 34.9784 27.4808 34.2249 27.1426" fill="#383838"/>
<path d="M84.1291 19.7746C84.5022 19.7746 84.8682 19.6883 85.227 19.5156C85.5858 19.3429 85.9088 19.1126 86.1958 18.8248C86.4829 18.537 86.7125 18.2132 86.8848 17.8534C87.057 17.4936 87.1431 17.1266 87.1431 16.7524V15.0902H90.2648V16.6157C90.2648 17.3281 90.1428 18.0045 89.8988 18.6521C89.6476 19.2997 89.3175 19.897 88.9013 20.4367C88.4779 20.9763 87.9827 21.4441 87.4086 21.8398C86.8345 22.2356 86.2174 22.5234 85.5643 22.7105V27.6252H82.4426V22.6889C81.7752 22.5018 81.1581 22.2068 80.5911 21.8182C80.0242 21.4225 79.529 20.9619 79.1128 20.4223C78.6894 19.8898 78.3593 19.2925 78.1225 18.6449C77.8785 17.9973 77.7637 17.3209 77.7637 16.6085V15.083H80.8854V16.7452C80.8854 17.1194 80.9715 17.4864 81.1437 17.8462C81.3159 18.206 81.5456 18.5298 81.8326 18.8176C82.1197 19.1054 82.4426 19.3357 82.8014 19.5084C83.1602 19.6811 83.5262 19.7675 83.8994 19.7675H84.1219L84.1291 19.7746Z" fill="#383838"/>
<path d="M112.934 18.1767C112.561 18.1767 112.195 18.263 111.829 18.4357C111.47 18.6084 111.147 18.8387 110.86 19.1265C110.573 19.4143 110.343 19.7382 110.171 20.0979C109.999 20.4577 109.913 20.8247 109.913 21.1989V21.4364C109.913 21.8105 109.999 22.1847 110.171 22.5517C110.343 22.9187 110.573 23.2497 110.86 23.5375C111.147 23.8254 111.47 24.0628 111.829 24.2427C112.188 24.4226 112.554 24.5161 112.934 24.5161H113.156C113.53 24.5161 113.896 24.4226 114.254 24.2427C114.613 24.0628 114.936 23.8325 115.223 23.5375C115.51 23.2497 115.74 22.9259 115.912 22.5517C116.084 22.1847 116.17 21.8105 116.17 21.4364V21.1989C116.17 20.8247 116.084 20.4577 115.912 20.0979C115.74 19.7382 115.51 19.4143 115.223 19.1265C114.936 18.8387 114.613 18.6084 114.254 18.4357C113.896 18.263 113.53 18.1767 113.156 18.1767H112.934ZM110.688 27.1354C109.934 26.7972 109.267 26.3367 108.686 25.7538C108.104 25.171 107.645 24.5018 107.301 23.7462C106.963 22.9906 106.791 22.1991 106.791 21.3716C106.791 20.5441 106.963 19.7238 107.301 18.961C107.638 18.1983 108.104 17.5291 108.686 16.9462C109.267 16.3633 109.934 15.9028 110.688 15.5646C111.441 15.2264 112.238 15.0537 113.077 15.0537C113.917 15.0537 114.692 15.2264 115.446 15.5646C116.199 15.9028 116.859 16.3705 117.426 16.9462C117.993 17.5291 118.445 18.1983 118.79 18.9538C119.134 19.7094 119.299 20.5009 119.299 21.3284C119.299 22.1559 119.127 22.9547 118.79 23.7174C118.453 24.4802 117.993 25.1494 117.426 25.7322C116.859 26.3151 116.199 26.7756 115.446 27.1282C114.692 27.4736 113.903 27.6535 113.077 27.6535C112.252 27.6535 111.441 27.4808 110.688 27.1426" fill="#383838"/>
<path d="M129.814 18.1838H126.706V27.6174H123.592V18.1838H120.506V15.0752H129.814V18.1838Z" fill="#383838"/>
<path d="M140.263 19.7809V22.911H134.536C134.816 23.3644 135.189 23.7457 135.656 24.048C136.122 24.3502 136.61 24.5013 137.112 24.5013H140.256V27.6315H137.256C136.416 27.6315 135.62 27.4588 134.866 27.1205C134.113 26.7752 133.445 26.3218 132.864 25.7462C132.283 25.1705 131.823 24.5085 131.486 23.7529C131.149 22.9974 130.977 22.2058 130.977 21.3783C130.977 20.5508 131.149 19.7377 131.486 18.9821C131.823 18.2266 132.283 17.5574 132.864 16.9745C133.445 16.3917 134.113 15.9311 134.866 15.5929C135.62 15.2475 136.416 15.082 137.256 15.082H140.256V18.2122H137.112C136.603 18.2122 136.122 18.3633 135.656 18.6655C135.189 18.9677 134.816 19.3419 134.536 19.8025H140.263V19.7809Z" fill="#383838"/>
<path d="M151.12 27.618H149.34C148.5 27.618 147.704 27.4453 146.95 27.1071C146.197 26.7617 145.529 26.3012 144.948 25.7255C144.367 25.1427 143.907 24.4735 143.57 23.7179C143.233 22.9624 143.061 22.1636 143.061 21.3217V15.083H146.182V21.4657C146.182 21.8398 146.268 22.2068 146.441 22.5666C146.613 22.9264 146.842 23.2502 147.13 23.538C147.417 23.8259 147.739 24.0561 148.098 24.2288C148.457 24.4015 148.823 24.4879 149.196 24.4879H151.12V27.618Z" fill="#383838"/>
<path d="M75.4955 17.212C74.9214 16.3485 74.0674 15.7081 72.9479 15.2979C72.5676 15.154 72.1227 15.082 71.6131 15.082C70.5798 15.082 69.5464 15.5354 68.5345 16.3845C67.5227 15.5354 66.4964 15.082 65.4559 15.082C64.9464 15.082 64.5014 15.154 64.1211 15.2979C63.0088 15.7153 62.1476 16.3557 61.5735 17.2192C60.9994 18.0827 60.7195 19.162 60.7267 20.4285V27.6243H63.8412V19.8816C63.8412 19.0181 64.5373 18.3201 65.3985 18.3201C66.2596 18.3201 66.9557 19.0181 66.9557 19.8816V27.6243H70.1348V19.8816C70.1348 19.0181 70.8309 18.3201 71.6921 18.3201C72.5532 18.3201 73.2422 19.0181 73.2422 19.8816V27.6243H76.3567V20.4285C76.3567 19.162 76.0768 18.0827 75.5027 17.2192" fill="#383838"/>
<path d="M54.7638 15.0752V19.6589C53.8811 19.3855 52.7903 19.184 51.721 19.184C50.58 19.184 49.6184 19.3567 48.6998 19.6589V15.0752H45.5781V27.6174H48.6998V22.9186C49.6184 22.6164 50.58 22.4437 51.721 22.4437C52.7903 22.4437 53.8811 22.6451 54.7638 22.9186V27.6174H57.8855V15.0752H54.7638Z" fill="#383838"/>
<path d="M101.561 15.0752V19.6589C100.678 19.3855 99.5872 19.184 98.5179 19.184C97.3769 19.184 96.4153 19.3567 95.4967 19.6589V15.0752H92.375V27.6174H95.4967V22.9186C96.4153 22.6164 97.3769 22.4437 98.5179 22.4437C99.5872 22.4437 100.678 22.6451 101.561 22.9186V27.6174H104.682V15.0752H101.561Z" fill="#383838"/>
<path d="M20.2805 0.0503704C19.9935 0.0215873 19.7064 0 19.4122 0C15.2284 0 11.8412 3.32444 11.8125 7.42603C12.0996 7.45481 12.3866 7.4764 12.6808 7.4764C16.8646 7.4764 20.2518 4.15196 20.2805 0.0503704Z" fill="url(#paint0_linear_12284_145174)"/>
<path d="M23.9695 15.5787C23.3165 14.2978 22.4266 13.1105 21.3143 12.0815C18.8743 9.82205 15.7885 8.70671 12.7099 8.7139C10.9517 8.98015 9.25808 9.71411 7.81565 10.887C7.44248 11.1892 7.09084 11.5203 6.75355 11.8872C4.50019 14.3266 3.65339 17.5647 4.17726 20.6013C4.29208 21.2921 4.48584 21.9685 4.74419 22.6305C4.6796 22.2132 4.64372 21.7886 4.64372 21.3569C4.64372 16.9027 8.24622 13.2904 12.6884 13.2904C13.9729 13.2904 15.1785 13.5926 16.255 14.1251C16.8434 14.269 17.4247 14.4633 17.9916 14.7152C18.9891 15.1613 19.9292 15.7729 20.776 16.5573C22.4984 18.1547 23.5461 20.2055 23.9121 22.3571C24.2924 24.5806 24.0915 26.9983 22.8428 28.9556C25.7995 25.0267 26.1511 19.8026 23.9839 15.5787H23.9695Z" fill="url(#paint1_linear_12284_145174)"/>
<path d="M23.8991 22.357C23.5331 20.2054 22.4854 18.1546 20.763 16.5572C19.9162 15.7728 18.9761 15.1612 17.9786 14.7151C17.4189 14.4632 16.8304 14.2689 16.242 14.125C18.8972 15.4418 20.72 18.1834 20.72 21.3567C20.72 24.048 19.4067 26.4226 17.3902 27.8905C17.3758 27.9049 17.3687 27.9193 17.3543 27.9265C17.017 28.2935 16.6654 28.6245 16.2922 28.9267C13.2638 31.3948 9.13026 31.8842 5.66411 30.3299C4.6666 29.8837 3.7265 29.2721 2.88688 28.4878C2.24101 27.8905 1.6382 27.2573 1.23633 26.5161C1.9109 28.0272 2.89405 29.4304 4.17861 30.6249C5.97986 32.2943 8.13993 33.3377 10.3861 33.7694C14.5125 34.5538 18.9331 33.2585 21.9974 29.9413C22.2916 29.6247 22.593 29.3081 22.8226 28.9483C23.9206 26.9047 24.2723 24.5733 23.8919 22.3498L23.8991 22.357Z" fill="url(#paint2_linear_12284_145174)"/>
<path d="M23.8974 22.3574C24.2777 24.5809 23.9261 26.9123 22.8281 28.9559C24.0768 26.9987 24.2777 24.5809 23.8974 22.3574Z" fill="url(#paint3_linear_12284_145174)"/>
<path d="M23.8974 22.3574C24.2777 24.5809 23.9261 26.9123 22.8281 28.9559C24.0768 26.9987 24.2777 24.5809 23.8974 22.3574Z" fill="url(#paint4_linear_12284_145174)"/>
<path d="M2.88592 28.4878C3.73272 29.2722 4.67282 29.8838 5.66315 30.33C9.13648 31.8842 13.2628 31.3949 16.2912 28.9268C16.6644 28.6246 17.0161 28.2936 17.3533 27.9266C17.3677 27.9122 17.3749 27.8978 17.3892 27.8906C16.0616 28.8548 14.4326 29.4233 12.6744 29.4233C8.66284 29.4233 5.34021 26.4802 4.73023 22.6305C4.47188 21.9685 4.2853 21.2921 4.1633 20.6013C3.64661 17.5647 4.49341 14.3266 6.73959 11.8872C7.07688 11.5202 7.42852 11.1892 7.80168 10.887C9.24412 9.70688 10.9449 8.98011 12.6959 8.71387C9.32306 8.72826 5.95737 10.0883 3.48873 12.7651C3.3452 12.9234 3.20885 13.0745 3.0725 13.24C-0.0922473 17.0394 -1.00364 22.3858 1.24254 26.5234C1.69465 27.2286 2.24723 27.8906 2.89309 28.495L2.88592 28.4878Z" fill="url(#paint5_linear_12284_145174)"/>
<path d="M2.88688 28.4882C2.24101 27.891 1.69561 27.229 1.23633 26.5166C1.6382 27.2578 2.24101 27.8838 2.88688 28.4882Z" fill="url(#paint6_linear_12284_145174)"/>
<path d="M2.88688 28.4882C2.24101 27.891 1.69561 27.229 1.23633 26.5166C1.6382 27.2578 2.24101 27.8838 2.88688 28.4882Z" fill="url(#paint7_linear_12284_145174)"/>
</g>
<defs>
<linearGradient id="paint0_linear_12284_145174" x1="11.8053" y1="7.41884" x2="20.3074" y2="0.0803575" gradientUnits="userSpaceOnUse">
<stop stop-color="#37A94B"/>
<stop offset="1" stop-color="#188253"/>
</linearGradient>
<linearGradient id="paint1_linear_12284_145174" x1="4.01938" y1="18.8383" x2="25.3617" y2="18.8383" gradientUnits="userSpaceOnUse">
<stop stop-color="#B81D27"/>
<stop offset="0.5" stop-color="#E1663D"/>
<stop offset="0.74" stop-color="#E98B40"/>
<stop offset="1" stop-color="#F3C020"/>
</linearGradient>
<linearGradient id="paint2_linear_12284_145174" x1="3.21731" y1="43.2532" x2="6.84157" y2="14.7219" gradientUnits="userSpaceOnUse">
<stop stop-color="#B81D27"/>
<stop offset="0.32" stop-color="#E1663D"/>
<stop offset="0.74" stop-color="#E98B40"/>
</linearGradient>
<linearGradient id="paint3_linear_12284_145174" x1="4.02622" y1="25.6603" x2="25.3614" y2="25.6603" gradientUnits="userSpaceOnUse">
<stop stop-color="#B81D27"/>
<stop offset="0.5" stop-color="#E1663D"/>
<stop offset="0.74" stop-color="#E98B40"/>
<stop offset="1" stop-color="#F3C020"/>
</linearGradient>
<linearGradient id="paint4_linear_12284_145174" x1="14.0961" y1="44.6358" x2="17.7203" y2="16.1045" gradientUnits="userSpaceOnUse">
<stop stop-color="#B81D27"/>
<stop offset="0.32" stop-color="#E1663D"/>
<stop offset="0.74" stop-color="#E98B40"/>
</linearGradient>
<linearGradient id="paint5_linear_12284_145174" x1="-2.60605" y1="4.31721" x2="18.9025" y2="30.6743" gradientUnits="userSpaceOnUse">
<stop offset="0.14" stop-color="#DB4039"/>
<stop offset="0.5" stop-color="#E1663D"/>
<stop offset="0.74" stop-color="#E98B40"/>
<stop offset="1" stop-color="#F3C020"/>
</linearGradient>
<linearGradient id="paint6_linear_12284_145174" x1="-6.82617" y1="41.9779" x2="-3.2019" y2="13.4466" gradientUnits="userSpaceOnUse">
<stop stop-color="#B81D27"/>
<stop offset="0.32" stop-color="#E1663D"/>
<stop offset="0.74" stop-color="#E98B40"/>
</linearGradient>
<linearGradient id="paint7_linear_12284_145174" x1="-10.3529" y1="10.6402" x2="11.1557" y2="36.9973" gradientUnits="userSpaceOnUse">
<stop offset="0.14" stop-color="#DB4039"/>
<stop offset="0.5" stop-color="#E1663D"/>
<stop offset="0.74" stop-color="#E98B40"/>
<stop offset="1" stop-color="#F3C020"/>
</linearGradient>
<clipPath id="clip0_12284_145174">
<rect width="151" height="34" fill="white"/>
</clipPath>
</defs>
</svg>
