<svg width="131" height="46" viewBox="0 0 131 46" fill="none" xmlns="http://www.w3.org/2000/svg">
<path d="M100.659 17.9821H97.5905V27.3835H94.5001V17.9821H91.4531V14.8848H100.67V17.9821H100.659Z" fill="#373838"/>
<path d="M111.232 18.0032H108.098C107.729 18.0032 107.361 18.0907 107.003 18.2659C106.645 18.441 106.33 18.6708 106.038 18.9554C105.756 19.2399 105.528 19.5683 105.355 19.9294C105.181 20.2906 105.094 20.6518 105.094 21.0239V27.3827H102.004V21.1552C102.004 20.3125 102.167 19.5135 102.514 18.7693C102.85 18.0141 103.305 17.3465 103.88 16.7665C104.455 16.1864 105.116 15.7267 105.864 15.3874C106.612 15.0482 107.404 14.873 108.228 14.873H111.221V17.9922L111.232 18.0032Z" fill="#373838"/>
<path d="M113.379 27.3835V14.8848H116.469V27.3835H113.379Z" fill="#373838"/>
<path d="M127.182 15.3992C127.93 15.7494 128.58 16.2091 129.144 16.7891C129.708 17.3692 130.153 18.0368 130.489 18.8029C130.825 19.5581 130.998 20.357 130.998 21.1888C130.998 22.0206 130.836 22.8086 130.489 23.5529C130.153 24.308 129.708 24.9757 129.144 25.5557C128.58 26.1358 127.93 26.5954 127.182 26.9347C126.433 27.274 125.653 27.4491 124.839 27.4491C124.265 27.4491 123.723 27.3725 123.191 27.2083C122.66 27.0442 122.161 26.8253 121.706 26.5298V30.5464H118.615V21.1451C118.615 20.3242 118.778 19.5253 119.125 18.781C119.461 18.0259 119.916 17.3582 120.491 16.7782C121.066 16.1981 121.727 15.7384 122.476 15.3992C123.224 15.0599 124.015 14.8848 124.85 14.8848C125.685 14.8848 126.455 15.0599 127.192 15.4101L127.182 15.3992ZM126 24.0673C126.357 23.8921 126.672 23.6623 126.965 23.3777C127.247 23.0932 127.474 22.7649 127.648 22.4037C127.821 22.0425 127.908 21.6704 127.908 21.2873V21.0247C127.908 20.6525 127.821 20.2804 127.648 19.9193C127.474 19.5581 127.247 19.2407 126.965 18.9452C126.683 18.6606 126.357 18.4308 126 18.2557C125.642 18.0806 125.284 17.993 124.904 17.993H124.688C124.319 17.993 123.95 18.0806 123.603 18.2557C123.245 18.4308 122.931 18.6606 122.638 18.9452C122.356 19.2298 122.129 19.5581 121.955 19.9193C121.782 20.2804 121.695 20.6416 121.695 21.0247V21.3858C121.695 21.747 121.782 22.1082 121.966 22.4584C122.139 22.8086 122.378 23.126 122.66 23.4106C122.942 23.6951 123.267 23.914 123.625 24.0782C123.983 24.2424 124.341 24.3299 124.698 24.3299H124.915C125.284 24.3299 125.653 24.2424 126.01 24.0673H126Z" fill="#373838"/>
<path d="M33.831 26.9347C33.0828 26.5954 32.4213 26.1358 31.8466 25.5557C31.2719 24.9757 30.8165 24.308 30.4803 23.5529C30.1442 22.7977 29.9707 22.0097 29.9707 21.1888C29.9707 20.368 30.1334 19.5471 30.4803 18.792C30.8165 18.0368 31.2719 17.3582 31.8466 16.7782C32.4213 16.1981 33.0828 15.7384 33.831 15.3992C34.5792 15.0599 35.3708 14.8848 36.1949 14.8848C37.019 14.8848 37.7997 15.0599 38.5479 15.3992C39.2961 15.7384 39.9467 16.1981 40.5106 16.7782C41.0744 17.3582 41.519 18.0259 41.8551 18.781C42.1913 19.5362 42.3648 20.3242 42.3648 21.1451C42.3648 21.9659 42.1913 22.7649 41.8551 23.531C41.519 24.2971 41.0636 24.9647 40.5106 25.5448C39.9575 26.1248 39.2961 26.5845 38.5479 26.9347C37.7997 27.285 37.019 27.4601 36.1949 27.4601C35.3708 27.4601 34.5683 27.285 33.831 26.9457V26.9347ZM36.0647 18.004C35.6961 18.004 35.3274 18.0915 34.9804 18.2666C34.6226 18.4417 34.3081 18.6716 34.0153 18.9561C33.7334 19.2407 33.5057 19.569 33.3322 19.9302C33.1587 20.2914 33.0719 20.6525 33.0719 21.0356V21.2764C33.0719 21.6485 33.1587 22.0206 33.3322 22.3818C33.5057 22.7539 33.7334 23.0713 34.0153 23.3668C34.2973 23.6514 34.6226 23.8812 34.9804 24.0673C35.3382 24.2424 35.6961 24.3409 36.0647 24.3409H36.2816C36.6503 24.3409 37.019 24.2533 37.3768 24.0673C37.7346 23.8921 38.0491 23.6514 38.3419 23.3668C38.6238 23.0822 38.8515 22.7539 39.025 22.3818C39.1985 22.0097 39.2852 21.6485 39.2852 21.2764V21.0356C39.2852 20.6635 39.1985 20.2914 39.025 19.9302C38.8515 19.569 38.6238 19.2516 38.3419 18.9561C38.0599 18.6716 37.7346 18.4417 37.3768 18.2666C37.019 18.0915 36.6611 18.004 36.2816 18.004H36.0647Z" fill="#373838"/>
<path d="M83.6134 19.5577C83.9821 19.5577 84.3508 19.4702 84.7086 19.2951C85.0665 19.1199 85.3809 18.8901 85.6737 18.6055C85.9556 18.321 86.1833 17.9927 86.3568 17.6315C86.5303 17.2703 86.6171 16.9091 86.6171 16.5261V14.8625H89.7075V16.3838C89.7075 17.0952 89.5882 17.7628 89.3388 18.4085C89.0894 19.0543 88.7641 19.6453 88.352 20.1925C87.9291 20.7288 87.4412 21.1994 86.8773 21.5934C86.3135 21.9874 85.6954 22.272 85.0556 22.458V27.3612H81.9652V22.4361C81.3038 22.2501 80.6965 21.9546 80.1327 21.5606C79.5688 21.1666 79.0809 20.7069 78.6688 20.1706C78.2459 19.6343 77.9206 19.0433 77.6821 18.3976C77.4435 17.7519 77.3242 17.0733 77.3242 16.3729V14.8516H80.4146V16.5151C80.4146 16.8873 80.5014 17.2594 80.6749 17.6205C80.8484 17.9817 81.0761 18.2991 81.358 18.5946C81.6399 18.8792 81.9652 19.109 82.3231 19.2841C82.6809 19.4592 83.0387 19.5468 83.4074 19.5468H83.6243L83.6134 19.5577Z" fill="#373838"/>
<path d="M74.711 17.0072C74.1471 16.1426 73.2905 15.5078 72.1844 15.0919C71.8049 14.9497 71.3603 14.873 70.8615 14.873C69.8314 14.873 68.8121 15.3218 67.8145 16.1754C66.8169 15.3218 65.7976 14.873 64.7675 14.873C64.2687 14.873 63.8241 14.9387 63.4446 15.0919C62.3385 15.5078 61.4819 16.1426 60.9181 17.0072C60.3542 17.8719 60.0723 18.9444 60.0723 20.203V27.3717H63.1627V19.6558C63.1627 18.8021 63.8566 18.1017 64.7024 18.1017C65.5482 18.1017 66.2422 18.8021 66.2422 19.6558V27.3717H69.3868V19.6558C69.3868 18.8021 70.0808 18.1017 70.9266 18.1017C71.7724 18.1017 72.4664 18.8021 72.4664 19.6558V27.3717H75.5567V20.203C75.5567 18.9444 75.2857 17.8719 74.711 17.0072Z" fill="#373838"/>
<path d="M53.8809 14.8848V19.4596C53.0134 19.186 51.9291 18.989 50.8664 18.989C49.7387 18.989 48.7844 19.1531 47.8736 19.4596V14.8848H44.7832V27.3835H47.8736V22.6992C48.7844 22.3927 49.7387 22.2286 50.8664 22.2286C51.9291 22.2286 53.0026 22.4256 53.8809 22.6992V27.3835H56.9713V14.8848H53.8809Z" fill="#373838"/>
<path d="M19.5616 0.0437783C19.2905 0.0109446 19.0086 0 18.7267 0C14.6929 0 11.4182 3.22865 11.3965 7.21247C11.6676 7.2453 11.9495 7.25625 12.2314 7.25625C16.2652 7.25625 19.5399 4.0276 19.5616 0.0437783Z" fill="url(#paint0_linear_12269_182564)"/>
<path d="M23.1174 15.1252C22.4885 13.8885 21.6319 12.7283 20.5584 11.7324C18.2053 9.53253 15.2234 8.45996 12.2523 8.45996C10.5607 8.72263 8.92331 9.42308 7.5245 10.5723C7.16667 10.8678 6.81967 11.1852 6.49437 11.5463C4.32568 13.9104 3.50157 17.0514 4.01122 20.0065C4.11965 20.6741 4.30399 21.3417 4.55339 21.9765C4.48833 21.5715 4.4558 21.1557 4.4558 20.7398C4.4558 16.4167 7.92571 12.9035 12.2197 12.9035C13.4559 12.9035 14.627 13.199 15.6571 13.7134C16.221 13.8556 16.7848 14.0417 17.327 14.2825C18.2921 14.7203 19.1921 15.3113 20.0053 16.0774C21.6644 17.6315 22.6728 19.6125 23.0307 21.7029C23.3993 23.859 23.2042 26.212 22.0005 28.1164C24.8524 24.2967 25.1885 19.2294 23.1066 15.1252H23.1174Z" fill="url(#paint1_linear_12269_182564)"/>
<path d="M23.0538 21.7024C22.696 19.612 21.6875 17.6201 20.0285 16.0769C19.2152 15.3108 18.3044 14.7198 17.3501 14.282C16.808 14.0412 16.2441 13.8552 15.6802 13.7129C18.2393 14.9934 19.9959 17.6529 19.9959 20.7284C19.9959 23.3441 18.7273 25.6534 16.7863 27.0762C16.7863 27.0871 16.7646 27.0981 16.7537 27.109C16.4284 27.4593 16.0814 27.7876 15.7236 28.0831C12.8067 30.48 8.81632 30.9506 5.46569 29.4402C4.50062 29.0134 3.60061 28.4114 2.78735 27.6563C2.16927 27.0762 1.58372 26.4633 1.19336 25.741C1.84397 27.2075 2.78735 28.5756 4.03435 29.7357C5.7693 31.3555 7.85125 32.3734 10.0199 32.7893C13.9995 33.5554 18.2718 32.2858 21.2213 29.0681C21.5032 28.7617 21.796 28.4552 22.0237 28.105C23.0863 26.1131 23.4225 23.8585 23.0538 21.6915V21.7024Z" fill="url(#paint2_linear_12269_182564)"/>
<path d="M23.0536 21.7031C23.4222 23.8592 23.0861 26.1247 22.0234 28.1166C23.2271 26.2123 23.4222 23.8701 23.0536 21.7031Z" fill="url(#paint3_linear_12269_182564)"/>
<path d="M23.0536 21.7031C23.4222 23.8592 23.0861 26.1247 22.0234 28.1166C23.2271 26.2123 23.4222 23.8701 23.0536 21.7031Z" fill="url(#paint4_linear_12269_182564)"/>
<path d="M2.78667 27.6675C3.59993 28.4226 4.51078 29.0246 5.46501 29.4514C8.81564 30.9618 12.7952 30.4802 15.7229 28.0943C16.0808 27.7988 16.4278 27.4814 16.7531 27.1202C16.7639 27.1093 16.7748 27.0984 16.7856 27.0874C15.5061 28.0177 13.9338 28.5759 12.2422 28.5759C8.37106 28.5759 5.17224 25.7193 4.57585 21.9872C4.32645 21.3525 4.14211 20.6848 4.03367 20.0172C3.53487 17.0622 4.34813 13.9211 6.51683 11.5571C6.84213 11.2068 7.18912 10.8785 7.54696 10.583C8.94576 9.44477 10.5723 8.73337 12.2747 8.4707C9.02167 8.48165 5.77947 9.80594 3.39391 12.4107C3.25294 12.564 3.12282 12.7172 2.9927 12.8704C-0.0868481 16.5478 -0.965169 21.7355 1.19268 25.7522C1.62642 26.4417 2.15775 27.0765 2.78667 27.6675Z" fill="url(#paint5_linear_12269_182564)"/>
<path d="M2.78735 27.6673C2.16927 27.0872 1.63794 26.4415 1.19336 25.752C1.58372 26.4743 2.15843 27.0762 2.78735 27.6673Z" fill="url(#paint6_linear_12269_182564)"/>
<path d="M2.78735 27.6673C2.16927 27.0872 1.63794 26.4415 1.19336 25.752C1.58372 26.4743 2.15843 27.0762 2.78735 27.6673Z" fill="url(#paint7_linear_12269_182564)"/>
<path d="M76.4473 38.9086C76.2738 38.9086 76.1003 38.9524 75.9268 39.029C75.7533 39.1165 75.6015 39.226 75.4605 39.3573C75.3195 39.4996 75.2111 39.6528 75.1352 39.8279C75.0485 40.003 75.0159 40.1782 75.0159 40.3533V40.4737C75.0159 40.6488 75.0593 40.8348 75.1352 41.0099C75.222 41.1851 75.3304 41.3383 75.4605 41.4806C75.6015 41.6228 75.7533 41.7323 75.9268 41.8198C76.1003 41.9074 76.2738 41.9512 76.4473 41.9512H76.5557C76.7292 41.9512 76.9135 41.9074 77.0762 41.8198C77.2497 41.7323 77.4015 41.6228 77.5425 41.4806C77.6834 41.3383 77.7919 41.1851 77.8678 41.0099C77.9545 40.8348 77.987 40.6597 77.987 40.4737V40.3533C77.987 40.1782 77.9437 39.9921 77.8678 39.8279C77.781 39.6528 77.6726 39.4996 77.5425 39.3573C77.4015 39.215 77.2497 39.1056 77.0762 39.029C76.9027 38.9414 76.7292 38.9086 76.5557 38.9086H76.4473ZM75.3738 43.1989C75.0159 43.0347 74.7015 42.8158 74.4195 42.5312C74.1484 42.2576 73.9207 41.9293 73.7581 41.5681C73.5954 41.2069 73.5195 40.8239 73.5195 40.4299C73.5195 40.0359 73.5954 39.6419 73.7581 39.2807C73.9207 38.9195 74.1376 38.5912 74.4195 38.3176C74.6906 38.044 75.0159 37.8141 75.3738 37.65C75.7316 37.4858 76.1111 37.4092 76.5123 37.4092C76.9135 37.4092 77.2822 37.4967 77.64 37.65C77.9979 37.8141 78.3123 38.033 78.5834 38.3176C78.8545 38.5912 79.0714 38.9195 79.234 39.2807C79.3967 39.6419 79.4726 40.0249 79.4726 40.4189C79.4726 40.8129 79.3967 41.196 79.234 41.5572C79.0714 41.9183 78.8545 42.2467 78.5834 42.5203C78.3123 42.7939 77.9979 43.0237 77.64 43.1879C77.2822 43.3521 76.9027 43.4396 76.5123 43.4396C76.122 43.4396 75.7316 43.363 75.3738 43.1989Z" fill="#373837"/>
<path d="M99.121 39.6745C99.2945 39.6745 99.468 39.6307 99.6415 39.5541C99.815 39.4666 99.9668 39.3571 100.108 39.2258C100.249 39.0835 100.357 38.9303 100.433 38.7552C100.52 38.58 100.552 38.4049 100.552 38.2298V37.4309H102.038V38.1642C102.038 38.5034 101.984 38.8318 101.864 39.1382C101.745 39.4447 101.593 39.7292 101.387 39.9919C101.192 40.2546 100.954 40.4735 100.682 40.6595C100.411 40.8456 100.119 40.9878 99.8042 41.0754V43.4285H98.3186V41.0645C98.0041 40.9769 97.7114 40.8346 97.4403 40.6486C97.1692 40.4625 96.9306 40.2327 96.7355 39.9809C96.5294 39.7292 96.3776 39.4447 96.2692 39.1273C96.1499 38.8208 96.0957 38.4925 96.0957 38.1532V37.4199H97.5813V38.2189C97.5813 38.394 97.6246 38.58 97.7005 38.7442C97.7873 38.9193 97.8957 39.0726 98.0258 39.2148C98.1668 39.3571 98.3186 39.4666 98.4921 39.5432C98.6656 39.6307 98.8391 39.6636 99.0126 39.6636H99.121V39.6745Z" fill="#373837"/>
<path d="M112.828 38.9086C112.655 38.9086 112.481 38.9524 112.308 39.029C112.134 39.1165 111.982 39.226 111.841 39.3573C111.7 39.4996 111.592 39.6528 111.516 39.8279C111.429 40.003 111.397 40.1782 111.397 40.3533V40.4737C111.397 40.6488 111.44 40.8348 111.516 41.0099C111.603 41.1851 111.711 41.3383 111.841 41.4806C111.982 41.6228 112.134 41.7323 112.308 41.8198C112.481 41.9074 112.655 41.9512 112.828 41.9512H112.937C113.11 41.9512 113.294 41.9074 113.457 41.8198C113.631 41.7323 113.782 41.6228 113.923 41.4806C114.064 41.3383 114.173 41.1851 114.249 41.0099C114.335 40.8348 114.368 40.6597 114.368 40.4737V40.3533C114.368 40.1782 114.325 39.9921 114.249 39.8279C114.162 39.6528 114.053 39.4996 113.923 39.3573C113.782 39.215 113.631 39.1056 113.457 39.029C113.284 38.9414 113.11 38.9086 112.937 38.9086H112.828ZM111.755 43.1989C111.397 43.0347 111.082 42.8158 110.8 42.5312C110.518 42.2467 110.302 41.9293 110.139 41.5681C109.976 41.2069 109.9 40.8239 109.9 40.4299C109.9 40.0359 109.987 39.6419 110.139 39.2807C110.302 38.9195 110.518 38.5912 110.8 38.3176C111.071 38.044 111.397 37.8141 111.755 37.65C112.112 37.4858 112.492 37.4092 112.893 37.4092C113.294 37.4092 113.663 37.4967 114.021 37.65C114.379 37.8141 114.693 38.033 114.964 38.3176C115.235 38.5912 115.452 38.9195 115.615 39.2807C115.778 39.6419 115.853 40.0249 115.853 40.4189C115.853 40.8129 115.778 41.196 115.615 41.5572C115.452 41.9183 115.235 42.2467 114.964 42.5203C114.693 42.7939 114.379 43.0237 114.021 43.1879C113.663 43.3521 113.284 43.4396 112.893 43.4396C112.503 43.4396 112.112 43.363 111.755 43.1989Z" fill="#373837"/>
<path d="M120.863 38.9084H119.377V43.4285H117.902V38.9084H116.428V37.4199H120.863V38.9084Z" fill="#373837"/>
<path d="M125.828 39.6743V41.1737H123.107C123.237 41.3926 123.421 41.5677 123.638 41.7209C123.855 41.8632 124.093 41.9398 124.332 41.9398H125.828V43.4392H124.397C123.996 43.4392 123.616 43.3626 123.259 43.1985C122.901 43.0343 122.586 42.8154 122.304 42.5418C122.033 42.2682 121.806 41.9508 121.643 41.5896C121.48 41.2284 121.404 40.8454 121.404 40.4514C121.404 40.0574 121.48 39.6634 121.643 39.3022C121.806 38.941 122.022 38.6236 122.304 38.3391C122.575 38.0654 122.901 37.8356 123.259 37.6714C123.616 37.5073 123.996 37.4307 124.397 37.4307H125.828V38.9301H124.332C124.093 38.9301 123.855 39.0067 123.638 39.149C123.41 39.2912 123.237 39.4773 123.107 39.6962H125.828V39.6743Z" fill="#373837"/>
<path d="M131.001 43.4285H130.155C129.754 43.4285 129.374 43.3519 129.016 43.1877C128.659 43.0235 128.344 42.8046 128.062 42.5201C127.791 42.2465 127.563 41.9181 127.401 41.557C127.238 41.1958 127.162 40.8127 127.162 40.4078V37.4199H128.648V40.4735C128.648 40.6486 128.691 40.8237 128.767 40.9988C128.854 41.1739 128.962 41.3271 129.092 41.4694C129.233 41.6117 129.385 41.7211 129.559 41.7977C129.732 41.8853 129.906 41.9181 130.079 41.9181H130.99V43.4175L131.001 43.4285Z" fill="#373837"/>
<path d="M95.0101 38.4487C94.739 38.0328 94.3269 37.7264 93.7956 37.5294C93.6113 37.4637 93.4052 37.4199 93.1558 37.4199C92.6679 37.4199 92.1691 37.6388 91.692 38.0438C91.2149 37.6388 90.7161 37.4199 90.2281 37.4199C89.9895 37.4199 89.7727 37.4528 89.5883 37.5294C89.057 37.7264 88.645 38.0328 88.3739 38.4487C88.1028 38.8646 87.9727 39.379 87.9727 39.9809V43.4285H89.4582V39.7183C89.4582 39.3024 89.7944 38.9741 90.1956 38.9741C90.5968 38.9741 90.9329 39.3133 90.9329 39.7183V43.4285H92.4402V39.7183C92.4402 39.3024 92.7763 38.9741 93.1775 38.9741C93.5787 38.9741 93.9149 39.3133 93.9149 39.7183V43.4285H95.4004V39.9809C95.4004 39.379 95.2703 38.8537 94.9992 38.4487" fill="#373837"/>
<path d="M85.1551 37.4199V39.6198C84.7322 39.4884 84.2225 39.3899 83.7129 39.3899C83.1707 39.3899 82.7153 39.4666 82.2707 39.6198V37.4199H80.7852V43.4285H82.2707V41.1849C82.7045 41.0426 83.1707 40.955 83.7129 40.955C84.2225 40.955 84.743 41.0535 85.1551 41.1849V43.4285H86.6406V37.4199H85.1551Z" fill="#373837"/>
<path d="M107.417 37.4199V39.6198C106.994 39.4884 106.484 39.3899 105.975 39.3899C105.432 39.3899 104.977 39.4666 104.532 39.6198V37.4199H103.047V43.4285H104.532V41.1849C104.966 41.0426 105.432 40.955 105.975 40.955C106.484 40.955 107.005 41.0535 107.417 41.1849V43.4285H108.902V37.4199H107.417Z" fill="#373837"/>
<path d="M61.6126 36.8291H62.4584V39.8279H62.4801C62.7837 39.2916 63.3259 38.9523 64.0958 38.9523C65.2669 38.9523 66.1018 39.9374 66.091 41.382C66.091 43.0894 65.0283 43.9321 63.9765 43.9321C63.2933 43.9321 62.7512 43.6695 62.3933 43.0347H62.3608L62.3174 43.8227H61.5801C61.6018 43.4943 61.6235 43.0128 61.6235 42.5969V36.8291H61.6126ZM62.4584 41.9074C62.4584 42.0168 62.4801 42.1263 62.5018 42.2248C62.6644 42.8267 63.1632 43.2426 63.7921 43.2426C64.6922 43.2426 65.2235 42.5093 65.2235 41.4149C65.2235 40.4627 64.7355 39.6419 63.8138 39.6419C63.2283 39.6419 62.6861 40.0468 62.5018 40.7035C62.4801 40.802 62.4584 40.9224 62.4584 41.0537V41.9074Z" fill="#383838"/>
<path d="M67.4032 39.051L68.4334 41.8747C68.5418 42.1921 68.6611 42.5642 68.737 42.8488H68.7587C68.8454 42.5642 68.943 42.203 69.0623 41.8528L69.9948 39.051H70.9057L69.6153 42.4547C68.9972 44.0855 68.5852 44.9282 67.9996 45.4426C67.5767 45.8147 67.1647 45.9679 66.9478 46.0008L66.7309 45.2675C66.9478 45.2018 67.2297 45.0596 67.4791 44.8407C67.7177 44.6546 68.0105 44.3153 68.2057 43.8775C68.249 43.79 68.2707 43.7243 68.2707 43.6696C68.2707 43.6149 68.249 43.5492 68.2165 43.4398L66.4707 39.04H67.4032V39.051Z" fill="#383838"/>
<defs>
<linearGradient id="paint0_linear_12269_182564" x1="11.3856" y1="7.20152" x2="19.6374" y2="0.130496" gradientUnits="userSpaceOnUse">
<stop stop-color="#2CB24A"/>
<stop offset="1" stop-color="#0A8655"/>
</linearGradient>
<linearGradient id="paint1_linear_12269_182564" x1="3.88109" y1="18.2882" x2="24.462" y2="18.2882" gradientUnits="userSpaceOnUse">
<stop stop-color="#C21525"/>
<stop offset="0.5" stop-color="#ED683B"/>
<stop offset="0.74" stop-color="#F28F3E"/>
<stop offset="1" stop-color="#FDC609"/>
</linearGradient>
<linearGradient id="paint2_linear_12269_182564" x1="-6.5382" y1="43.6377" x2="-3.11176" y2="16.8404" gradientUnits="userSpaceOnUse">
<stop stop-color="#C21525"/>
<stop offset="0.32" stop-color="#ED683B"/>
<stop offset="0.74" stop-color="#F28F3E"/>
</linearGradient>
<linearGradient id="paint3_linear_12269_182564" x1="3.8823" y1="24.9099" x2="24.4632" y2="24.9099" gradientUnits="userSpaceOnUse">
<stop stop-color="#C21525"/>
<stop offset="0.5" stop-color="#ED683B"/>
<stop offset="0.74" stop-color="#F28F3E"/>
<stop offset="1" stop-color="#FDC609"/>
</linearGradient>
<linearGradient id="paint4_linear_12269_182564" x1="3.57876" y1="44.9321" x2="7.00521" y2="18.1348" gradientUnits="userSpaceOnUse">
<stop stop-color="#C21525"/>
<stop offset="0.32" stop-color="#ED683B"/>
<stop offset="0.74" stop-color="#F28F3E"/>
</linearGradient>
<linearGradient id="paint5_linear_12269_182564" x1="-2.97563" y1="2.08634" x2="18.2197" y2="27.8895" gradientUnits="userSpaceOnUse">
<stop offset="0.14" stop-color="#E83E39"/>
<stop offset="0.5" stop-color="#ED683B"/>
<stop offset="0.74" stop-color="#F28F3E"/>
<stop offset="1" stop-color="#FDC609"/>
</linearGradient>
<linearGradient id="paint6_linear_12269_182564" x1="-16.6554" y1="42.3442" x2="-13.229" y2="15.5468" gradientUnits="userSpaceOnUse">
<stop stop-color="#C21525"/>
<stop offset="0.32" stop-color="#ED683B"/>
<stop offset="0.74" stop-color="#F28F3E"/>
</linearGradient>
<linearGradient id="paint7_linear_12269_182564" x1="-9.9992" y1="7.85602" x2="11.1961" y2="33.6591" gradientUnits="userSpaceOnUse">
<stop offset="0.14" stop-color="#E83E39"/>
<stop offset="0.5" stop-color="#ED683B"/>
<stop offset="0.74" stop-color="#F28F3E"/>
<stop offset="1" stop-color="#FDC609"/>
</linearGradient>
</defs>
</svg>
