<?xml version="1.0" standalone="no"?>
<!DOCTYPE svg PUBLIC "-//W3C//DTD SVG 20010904//EN"
 "http://www.w3.org/TR/2001/REC-SVG-20010904/DTD/svg10.dtd">
<svg version="1.0" xmlns="http://www.w3.org/2000/svg"
 width="361.000000pt" height="361.000000pt" viewBox="0 0 361.000000 361.000000"
 preserveAspectRatio="xMidYMid meet">
<metadata>
Created by potrace 1.14, written by Peter Selinger 2001-2017
</metadata>
<g transform="translate(0.000000,361.000000) scale(0.100000,-0.100000)"
fill="#000000" stroke="none">
<path d="M2405 3600 c-368 -54 -651 -348 -690 -717 l-7 -62 37 -7 c96 -18 286
21 420 86 168 82 282 191 364 350 63 121 111 331 80 351 -16 10 -132 10 -204
-1z"/>
<path d="M1685 2670 c-468 -44 -864 -312 -1086 -733 -156 -297 -196 -622 -113
-915 29 -104 133 -322 205 -429 70 -106 242 -274 357 -351 231 -153 436 -219
717 -229 194 -6 305 9 480 68 452 151 778 511 886 979 26 109 36 335 20 452
-59 445 -340 832 -746 1028 -213 104 -486 153 -720 130z m337 -500 c570 -149
828 -805 509 -1291 -56 -85 -174 -202 -259 -256 -81 -52 -199 -100 -294 -119
-123 -25 -315 -16 -428 21 -349 112 -579 395 -610 752 -6 66 -6 131 0 172 54
380 353 680 735 741 85 13 259 3 347 -20z"/>
</g>
</svg>
