<svg width="76" height="76" viewBox="0 0 76 76" fill="none" xmlns="http://www.w3.org/2000/svg">
<g clip-path="url(#clip0_338_32804)">
<rect width="76" height="76" rx="38" fill="white"/>
<path d="M44.115 38.9226C44.0918 40.1256 43.7118 41.2949 43.0237 42.2821C42.3351 43.269 41.3691 44.0294 40.2478 44.4668C39.1268 44.9041 37.9009 44.9988 36.7259 44.7385C35.551 44.4785 34.4797 43.8755 33.6479 43.0057C32.8161 42.1362 32.2613 41.0392 32.0534 39.8539C31.846 38.6683 31.9949 37.4482 32.4817 36.3477C32.9685 35.2468 33.771 34.3154 34.7875 33.6717C35.804 33.0276 36.9889 32.7001 38.192 32.7305C39.7906 32.7901 41.3026 33.4703 42.4084 34.6263C43.5142 35.7822 44.1264 37.3231 44.115 38.9226Z" fill="#8592A7"/>
<path d="M48.5001 19.8848H27.8847C25.8446 19.8848 23.888 20.6952 22.4454 22.1378C21.0028 23.5804 20.1924 25.5369 20.1924 27.5771V48.6538C20.1924 50.6941 21.0028 52.6507 22.4454 54.0932C23.888 55.536 25.8446 56.3462 27.8847 56.3462H48.5001C50.5404 56.3462 52.4966 55.536 53.9395 54.0932C55.3819 52.6507 56.1925 50.6941 56.1925 48.6538V27.6155C56.1974 26.6021 56.0021 25.5977 55.6179 24.66C55.2337 23.7223 54.6679 22.8697 53.9531 22.1514C53.2384 21.433 52.3883 20.8629 51.4527 20.474C50.5168 20.085 49.5136 19.8847 48.5001 19.8848ZM38.1923 49.2311C36.152 49.2767 34.1445 48.7135 32.4258 47.6134C30.7066 46.5133 29.3547 44.926 28.5419 43.0542C27.7291 41.1823 27.4926 39.1105 27.8624 37.1034C28.2322 35.0966 29.1916 33.2452 30.6181 31.7856C32.0446 30.3264 33.8736 29.3253 35.8716 28.9099C37.87 28.4946 39.9463 28.6841 41.8365 29.4541C43.7262 30.2241 45.3439 31.5398 46.4827 33.2331C47.6216 34.9267 48.2303 36.921 48.2307 38.9616C48.2459 40.295 47.9985 41.6185 47.5023 42.8562C47.006 44.0938 46.2707 45.2221 45.3385 46.1755C44.4064 47.1293 43.2957 47.8897 42.0694 48.4141C40.8431 48.9381 39.5257 49.2159 38.1923 49.2311ZM49.3464 28.6924C49.0956 28.6925 48.8471 28.6425 48.616 28.5454C48.385 28.4483 48.1752 28.306 47.9997 28.1269C47.8241 27.9478 47.6862 27.7355 47.5938 27.5024C47.5015 27.2693 47.4567 27.0201 47.4616 26.7694C47.4616 26.2593 47.6641 25.7702 48.0248 25.4095C48.3854 25.0489 48.8748 24.8463 49.3848 24.8463C49.8947 24.8463 50.3838 25.0489 50.7444 25.4095C51.105 25.7702 51.3076 26.2593 51.3076 26.7694C51.3152 27.0407 51.2643 27.3106 51.1579 27.5603C51.0515 27.8101 50.8926 28.034 50.6916 28.2166C50.4906 28.3992 50.2527 28.5363 49.9939 28.6184C49.7351 28.7005 49.4619 28.7258 49.1925 28.6924H49.3464Z" fill="#8592A7"/>
<path d="M38.1919 0.000485724C30.6747 -0.0375143 23.3152 2.15493 17.0443 6.30047C10.7734 10.446 5.87294 16.3583 2.96286 23.2895C0.0527803 30.2207 -0.736138 37.8591 0.695892 45.2387C2.12792 52.6187 5.71653 59.4078 11.0078 64.7471C16.299 70.0869 23.0552 73.7372 30.4213 75.2366C37.7876 76.7358 45.4332 76.0164 52.3906 73.1698C59.348 70.3229 65.3045 65.4767 69.5073 59.2436C73.7097 53.0108 75.9692 45.6715 75.9996 38.1544C76.0407 28.0827 72.0814 18.4068 64.9922 11.2527C57.9029 4.09852 48.2634 0.0513677 38.1919 0.000485724ZM61.2689 48.2696C61.2792 49.9746 60.9509 51.6649 60.303 53.2419C59.6554 54.8193 58.7009 56.2519 57.4955 57.4576C56.2898 58.6633 54.8568 59.6175 53.2794 60.2654C51.7024 60.9133 50.0122 61.2412 48.3075 61.2314H28.0766C26.3716 61.2412 24.6816 60.9133 23.1044 60.2654C21.5272 59.6175 20.0943 58.6633 18.8887 57.4576C17.683 56.2519 16.7287 54.8193 16.0809 53.2419C15.4332 51.6649 15.1049 49.9746 15.1151 48.2696V28.0389C15.1049 26.334 15.4332 24.6439 16.0809 23.0667C16.7287 21.4895 17.683 20.0566 18.8887 18.851C20.0943 17.6453 21.5272 16.691 23.1044 16.0432C24.6816 15.3955 26.3716 15.0672 28.0766 15.0774H48.3075C50.0122 15.0672 51.7024 15.3955 53.2794 16.0432C54.8568 16.691 56.2898 17.6453 57.4955 18.851C58.7009 20.0566 59.6554 21.4895 60.303 23.0667C60.9509 24.6439 61.2792 26.334 61.2689 28.0389V48.2696Z" fill="#8592A7"/>
</g>
<defs>
<clipPath id="clip0_338_32804">
<rect width="76" height="76" fill="white"/>
</clipPath>
</defs>
</svg>
