<svg width="76" height="76" viewBox="0 0 76 76" fill="none" xmlns="http://www.w3.org/2000/svg">
<g clip-path="url(#clip0_338_32814)">
<rect width="76" height="76" rx="38" fill="#8592A7"/>
<path d="M14.5159 32.3748C14.5159 30.7346 14.5052 29.1646 14.5182 27.5948C14.5437 24.515 16.7661 22.1483 19.5964 21.422C19.795 21.3711 20.0164 21.4065 20.2272 21.4065C32.1773 21.406 44.1274 21.4027 56.0775 21.4114C57.2778 21.4122 58.3265 21.9069 59.2537 22.6294C61.065 24.0408 61.8035 25.9068 61.7852 28.2073C61.7312 35.002 61.7666 41.7975 61.7656 48.5926C61.7652 51.3122 59.1962 54.27 56.4934 54.4271C53.6501 54.5924 50.7947 54.5539 47.9444 54.5906C46.5856 54.6081 45.2258 54.5737 43.8679 54.6133C43.6413 54.6199 43.306 54.8352 43.2173 55.0394C42.1129 57.5805 41.0478 60.1387 39.9654 62.6894C39.7037 63.3062 39.4683 63.9445 39.118 64.5091C38.9416 64.7933 38.5604 65.0203 38.2261 65.1199C37.7434 65.2639 37.4493 64.9077 37.2695 64.4978C36.4806 62.6996 35.6928 60.9009 34.9197 59.0959C34.3471 57.7592 33.7844 56.4179 33.2465 55.067C33.089 54.6715 32.8514 54.5841 32.4563 54.5856C28.7776 54.5992 25.0985 54.566 21.4202 54.6053C19.5997 54.6248 17.9597 54.1518 16.6226 52.9384C15.3488 51.7825 14.5439 50.2937 14.5307 48.5425C14.4901 43.177 14.5159 37.811 14.5159 32.3748ZM48.0555 42.219C49.7779 43.6115 51.5149 43.6394 53.2586 42.2277C53.2377 43.8772 52.7646 45.0839 50.8387 44.9119C50.8387 45.7376 50.8387 46.4767 50.8387 47.2811C51.155 47.2811 51.4323 47.2611 51.706 47.2842C54.1672 47.4923 55.9623 45.6685 55.874 43.1063C55.803 41.0463 55.8597 38.9818 55.8597 36.9194C55.8597 36.3171 55.8597 35.7148 55.8597 35.096C54.974 35.096 54.17 35.096 53.3749 35.096C53.3345 35.3853 53.3011 35.6247 53.2628 35.8987C53.139 35.8396 53.0695 35.8227 53.0212 35.7811C51.7424 34.6799 50.1245 34.6114 48.6918 35.5133C47.5192 36.2515 47.156 37.4168 47.0336 38.6397C46.9086 39.889 47.0025 41.1591 48.0555 42.219ZM26.3987 43.0876C27.2896 42.909 28.0303 42.4944 28.593 41.7605C29.485 40.5972 29.3738 39.2792 29.1788 37.963C29.0405 37.0291 28.6549 36.2094 27.8719 35.6019C26.6635 34.6645 24.5325 34.5611 23.0795 35.933C23.0795 34.4087 23.0795 32.982 23.0795 31.5788C22.1395 31.5788 21.307 31.5788 20.4779 31.5788C20.4779 35.3792 20.4779 39.1318 20.4779 42.8899C21.3707 42.8899 22.2075 42.8899 23.0395 42.8899C23.0784 42.669 23.1113 42.4821 23.1579 42.2177C24.0767 43.1736 25.1383 43.3407 26.3987 43.0876ZM45.2593 40.2252C45.5621 39.2006 45.4372 38.2152 44.9465 37.281C44.0918 35.654 42.6166 34.9357 40.8953 34.9422C39.1501 34.9488 37.6698 35.7055 36.7923 37.3288C36.0493 38.7031 36.393 40.6098 37.4554 41.7622C38.6074 43.0118 40.0405 43.3643 41.6328 43.189C43.2373 43.0124 44.7708 41.8933 45.2593 40.2252ZM33.0031 42.9217C33.4207 42.9217 33.8383 42.9217 34.2034 42.9217C34.2034 42.5914 34.2034 42.3186 34.2034 42.0458C34.2034 39.5425 34.2528 37.0376 34.1703 34.5371C34.1483 33.873 33.8237 33.1569 33.4572 32.5796C32.7846 31.5202 31.6426 31.266 30.4065 31.1594C30.4065 31.839 30.4256 32.5147 30.399 33.1886C30.3845 33.5559 30.4767 33.7701 30.8374 33.9386C31.4535 34.2263 31.7069 34.7231 31.6884 35.4477C31.6402 37.3415 31.6722 39.2373 31.6722 41.1323C31.6722 41.7094 31.6722 42.2865 31.6722 42.9217C32.1288 42.9217 32.4981 42.9217 33.0031 42.9217Z" fill="white"/>
<path d="M48.0194 42.1827C47.0024 41.159 46.9085 39.8889 47.0335 38.6396C47.1559 37.4167 47.5192 36.2514 48.6917 35.5132C50.1244 34.6113 51.7423 34.6797 53.0212 35.781C53.0694 35.8226 53.1389 35.8395 53.2627 35.8986C53.301 35.6246 53.3344 35.3852 53.3749 35.0959C54.17 35.0959 54.974 35.0959 55.8596 35.0959C55.8596 35.7146 55.8596 36.317 55.8596 36.9193C55.8596 38.9817 55.803 41.0462 55.8739 43.1062C55.9622 45.6684 54.1671 47.4922 51.7059 47.2841C51.4322 47.261 51.1549 47.281 50.8386 47.281C50.8386 46.4766 50.8386 45.7375 50.8386 44.9118C52.7645 45.0838 53.2377 43.8771 53.2585 42.2275C51.5148 43.6393 49.7778 43.6113 48.0194 42.1827ZM53.3237 39.7047C53.7121 39.0613 53.3322 38.1993 52.8918 37.8146C52.381 37.3683 51.7547 37.1168 51.0354 37.3977C50.2906 37.6885 49.8637 38.2172 49.8177 39.0128C49.7653 39.9179 50.3143 40.6245 51.2313 40.8916C51.9538 41.1019 52.7576 40.6745 53.3237 39.7047Z" fill="#8592A7"/>
<path d="M26.3472 43.1199C25.1379 43.3401 24.0764 43.173 23.1575 42.2171C23.1109 42.4815 23.0781 42.6683 23.0392 42.8893C22.2071 42.8893 21.3704 42.8893 20.4775 42.8893C20.4775 39.1312 20.4775 35.3786 20.4775 31.5781C21.3066 31.5781 22.1391 31.5781 23.0791 31.5781C23.0791 32.9813 23.0791 34.4081 23.0791 35.9323C24.5321 34.5605 26.6631 34.6639 27.8715 35.6013C28.6546 36.2088 29.0401 37.0285 29.1784 37.9623C29.3734 39.2785 29.4846 40.5966 28.5926 41.7599C28.0299 42.4937 27.2892 42.9083 26.3472 43.1199ZM23.7299 40.3925C24.4625 40.9888 25.6161 40.9697 26.1782 40.3172C26.7353 39.6704 26.8335 38.5937 26.0867 37.9472C25.3441 37.3043 24.3798 37.2507 23.6595 37.9265C23.0475 38.5007 23.0445 39.5671 23.7299 40.3925Z" fill="#8592A7"/>
<path d="M45.2273 40.2723C44.7707 41.8926 43.2371 43.0117 41.6327 43.1883C40.0403 43.3635 38.6073 43.011 37.4553 41.7614C36.3929 40.609 36.0492 38.7024 36.7921 37.328C37.6696 35.7048 39.1499 34.9481 40.8951 34.9415C42.6165 34.9349 44.0917 35.6533 44.9463 37.2803C45.4371 38.2144 45.562 39.1998 45.2273 40.2723ZM39.9979 37.4884C39.1439 37.9526 38.9516 38.7633 39.1688 39.5728C39.2945 40.0412 39.7506 40.5262 40.1878 40.7818C40.8835 41.1885 41.8658 40.8983 42.3265 40.3229C42.8887 39.6206 42.9286 38.7073 42.4278 38.0053C41.9608 37.3507 40.997 37.1164 39.9979 37.4884Z" fill="#8592A7"/>
<path d="M32.9352 42.9225C32.4981 42.9225 32.1287 42.9225 31.6721 42.9225C31.6721 42.2872 31.6721 41.7101 31.6721 41.1331C31.6721 39.2381 31.6401 37.3422 31.6883 35.4485C31.7068 34.7238 31.4534 34.227 30.8373 33.9393C30.4766 33.7709 30.3844 33.5567 30.3989 33.1893C30.4255 32.5154 30.4065 31.8397 30.4065 31.1602C31.6425 31.2667 32.7845 31.5209 33.4571 32.5803C33.8237 33.1577 34.1482 33.8737 34.1702 34.5378C34.2528 37.0383 34.2033 39.5433 34.2033 42.0465C34.2033 42.3193 34.2033 42.5921 34.2033 42.9225C33.8382 42.9225 33.4206 42.9225 32.9352 42.9225Z" fill="#8592A7"/>
<path d="M53.3002 39.7542C52.7578 40.6744 51.954 41.1018 51.2315 40.8915C50.3145 40.6244 49.7655 39.9178 49.8179 39.0127C49.8639 38.2171 50.2908 37.6884 51.0356 37.3976C51.7549 37.1167 52.3812 37.3682 52.892 37.8145C53.3324 38.1992 53.7123 39.0612 53.3002 39.7542Z" fill="white"/>
<path d="M23.6917 40.3534C23.0448 39.5665 23.0478 38.5001 23.6598 37.926C24.3802 37.2502 25.3445 37.3037 26.087 37.9466C26.8338 38.5932 26.7357 39.6698 26.1785 40.3166C25.6164 40.9691 24.4628 40.9882 23.6917 40.3534Z" fill="white"/>
<path d="M40.0491 37.465C40.9971 37.1174 41.9609 37.3518 42.4278 38.0063C42.9287 38.7084 42.8887 39.6217 42.3265 40.324C41.8659 40.8993 40.8836 41.1896 40.1878 40.7829C39.7507 40.5273 39.2946 40.0423 39.1689 39.5738C38.9517 38.7644 39.1439 37.9537 40.0491 37.465Z" fill="white"/>
</g>
<defs>
<clipPath id="clip0_338_32814">
<rect width="76" height="76" fill="white"/>
</clipPath>
</defs>
</svg>
