<svg width="76" height="76" viewBox="0 0 76 76" fill="none" xmlns="http://www.w3.org/2000/svg">
<g clip-path="url(#clip0_338_32810)">
<rect width="76" height="76" rx="38" fill="#8592A7"/>
<path d="M41.9359 32.1073C42.1853 32.271 42.4305 32.4418 42.6774 32.4444C44.7196 32.4661 46.7621 32.4568 48.8045 32.4568C49.0736 32.4568 49.3426 32.4568 49.7336 32.4568C49.3545 35.1985 48.9874 37.8532 48.6106 40.578C46.3986 40.578 44.2173 40.578 41.9609 40.578C41.9609 47.4141 41.9609 54.1751 41.9609 61C39.041 61 36.1969 61 33.2758 61C33.2758 54.2225 33.2758 47.4615 33.2758 40.6225C30.8222 40.6225 28.4433 40.6225 26 40.6225C26 37.881 26 35.2171 26 32.4742C28.3902 32.4742 30.7692 32.4742 33.2598 32.4742C33.2598 32.0822 33.2598 31.7669 33.2598 31.4517C33.2598 29.4949 33.2296 27.5375 33.2675 25.5815C33.3144 23.1594 33.781 20.8444 35.3573 18.9113C37.0845 16.7933 39.2937 15.5266 42.011 15.132C44.5251 14.7668 46.973 15.2357 49.4305 15.6138C49.6376 15.6457 49.971 15.905 49.9737 16.0635C50.0101 18.1877 49.9981 20.3128 49.9981 22.4826C49.4755 22.4826 49.0308 22.5243 48.5961 22.4751C47.059 22.3014 45.5539 22.3755 44.114 22.9964C42.8232 23.553 42.1827 24.6304 42.0996 25.9676C41.9743 27.9862 41.9815 30.0131 41.9359 32.1073Z" fill="white"/>
</g>
<defs>
<clipPath id="clip0_338_32810">
<rect width="76" height="76" fill="white"/>
</clipPath>
</defs>
</svg>
