<svg width="76" height="76" viewBox="0 0 76 76" fill="none" xmlns="http://www.w3.org/2000/svg">
<g clip-path="url(#clip0_338_32753)">
<rect width="76" height="76" rx="38" fill="#FF6000"/>
<path d="M32.063 31.7922C32.0801 31.5075 32.0971 31.2942 32.1162 31.0551C34.9128 31.0551 37.6526 31.0551 40.5186 31.0551C40.5186 32.2673 40.5186 33.4765 40.5186 34.8245C41.1173 34.1641 41.5827 33.6428 42.0568 33.1294C43.6196 31.4367 45.5703 30.5657 47.8426 30.2617C50.1155 29.9577 52.2996 30.1982 54.3498 31.194C57.1998 32.5782 58.7915 34.9676 59.3533 38.0294C59.5773 39.2509 59.6519 40.5138 59.6588 41.7586C59.6898 47.398 59.6723 53.0377 59.6723 58.6773C59.6723 58.9708 59.6723 59.2644 59.6723 59.6147C56.7605 59.6147 53.904 59.6147 50.9145 59.6147C50.9145 59.3515 50.9145 59.0683 50.9145 58.7852C50.9145 53.7392 50.9133 48.6933 50.9154 43.6473C50.9159 42.4474 50.6078 41.3303 50.0376 40.2811C49.2622 38.8545 48.0298 38.2013 46.4372 38.1477C45.119 38.1033 43.8778 38.2363 42.7538 39.0774C41.4572 40.0476 40.9087 41.3838 40.6897 42.8849C40.5485 43.8524 40.5343 44.844 40.5307 45.8251C40.5149 50.1042 40.5239 54.3834 40.5239 58.6625C40.5239 58.9572 40.5239 59.2519 40.5239 59.6095C37.7037 59.6095 34.9289 59.6095 32.063 59.6095C32.063 50.3487 32.063 41.1061 32.063 31.7922Z" fill="white"/>
<path d="M17.5161 55.5143C17.5161 47.3302 17.5161 39.2204 17.5161 31.0664C20.3618 31.0664 23.2661 31.0664 26.2222 31.0664C26.2222 40.5752 26.2222 50.0598 26.2222 59.6075C23.3262 59.6075 20.4234 59.6075 17.5161 59.6075C17.5161 58.2794 17.5161 56.9339 17.5161 55.5143Z" fill="white"/>
<path d="M19.613 17.0667C22.8512 15.7192 25.9229 17.4359 26.773 20.3143C27.7649 23.6729 25.2939 27.0744 21.8662 27.0293C19.7297 27.0012 18.1298 26.1396 17.185 24.2321C16.2127 22.2691 16.336 20.3264 17.7282 18.5972C18.2147 17.9929 18.9409 17.5816 19.613 17.0667Z" fill="white"/>
</g>
<defs>
<clipPath id="clip0_338_32753">
<rect width="76" height="76" fill="white"/>
</clipPath>
</defs>
</svg>
