<svg width="76" height="76" viewBox="0 0 76 76" fill="none" xmlns="http://www.w3.org/2000/svg">
<g clip-path="url(#clip0_338_32825)">
<rect width="76" height="76" rx="38" fill="#8592A7"/>
<path d="M48.7719 51.1706C47.0968 51.7103 45.4954 52.3155 43.8446 52.7192C41.0325 53.4068 38.1516 53.5494 35.2958 53.1166C33.9358 52.9105 33.0548 53.5395 32.0945 54.2206C29.9055 55.7733 27.7158 57.3253 25.5055 58.8472C25.2874 58.9973 24.9245 58.9373 24.6288 58.9748C24.6306 58.7007 24.5768 58.4125 24.6428 58.1549C25.2714 55.7039 25.9203 53.2581 26.5708 50.7826C25.6318 50.1836 24.6703 49.6204 23.7619 48.9815C20.8286 46.9184 18.5112 44.321 17.2839 40.9125C16.1075 37.6452 16.1451 34.358 17.4782 31.1059C19.1356 27.0625 22.1082 24.2743 25.8406 22.1802C27.986 20.9765 30.28 20.1669 32.6735 19.6736C35.3276 19.1266 38.0225 18.8961 40.7196 19.301C42.5219 19.5716 44.3293 19.8849 46.0873 20.3555C48.7762 21.0751 51.2203 22.358 53.3974 24.097C55.4667 25.7499 57.2222 27.6808 58.3893 30.0971C59.5227 32.4438 60.0563 34.9285 59.7923 37.5069C59.5009 40.3527 58.4143 42.9117 56.6034 45.1698C54.4906 47.8043 51.8612 49.7325 48.7719 51.1706ZM51.0652 32.5767C50.233 33.4348 49.4008 34.2928 48.5687 35.1509C48.5092 35.112 48.4497 35.0732 48.3902 35.0344C48.3902 34.2009 48.3947 33.3673 48.389 32.5338C48.383 31.6417 47.9073 31.0527 47.2037 31.0514C46.4846 31.0501 46.0195 31.6061 46.0176 32.5066C46.0118 35.2269 46.0123 37.9472 46.0173 40.6675C46.019 41.5486 46.4371 42.009 47.2045 42.0086C47.9705 42.0083 48.3813 41.5472 48.3889 40.6642C48.3954 39.9224 48.3571 39.178 48.4101 38.4399C48.4277 38.1941 48.6667 37.9643 48.8045 37.7272C48.983 37.8578 49.2021 37.9567 49.3335 38.1242C50.2078 39.2391 51.0523 40.3774 51.9293 41.4901C52.393 42.0785 53.0869 42.1693 53.6026 41.7605C54.1126 41.3563 54.1882 40.6068 53.7606 40.0426C53.3917 39.5559 53.0047 39.0828 52.6281 38.6019C51.9566 37.7442 51.2868 36.885 50.5767 35.9759C51.5566 35.0615 52.4673 34.1984 53.3937 33.3523C53.8959 32.8937 54.0528 32.077 53.6885 31.6468C53.2173 31.0904 52.5645 31.0134 52.0078 31.5064C51.681 31.7957 51.4255 32.1656 51.0652 32.5767ZM35.8415 40.3682C35.9223 40.6238 35.993 40.883 36.0856 41.1342C36.3641 41.8894 36.9566 42.2008 37.6465 41.964C38.2482 41.7574 38.4518 41.2361 38.1645 40.436C37.176 37.6826 36.1833 34.9303 35.1506 32.1934C34.9025 31.536 34.3499 31.1678 33.6006 31.171C32.8809 31.1741 32.3137 31.3944 32.0389 32.1289C31.7057 33.0193 31.3448 33.8993 31.0098 34.789C30.2883 36.7055 29.5661 38.6219 28.8655 40.5461C28.6733 41.074 29.0138 41.7869 29.4847 41.976C29.9766 42.1734 30.6355 41.8885 30.8917 41.3357C31.0551 40.9832 31.1274 40.583 31.3224 40.2524C31.4425 40.049 31.7115 39.8126 31.9224 39.8039C33.0091 39.7591 34.0996 39.7587 35.1862 39.8046C35.3932 39.8133 35.5884 40.0998 35.8415 40.3682ZM27.1638 36.8878C27.1638 35.7382 27.1638 34.5887 27.1638 33.3993C27.8576 33.3993 28.4243 33.4065 28.9907 33.3976C29.8431 33.3842 30.2936 32.9468 30.2807 32.1607C30.2692 31.4598 29.9229 31.1761 29.0473 31.1743C27.0457 31.1703 25.044 31.1701 23.0423 31.1745C22.1848 31.1763 21.8299 31.4805 21.8212 32.1959C21.8123 32.927 22.2891 33.3835 23.0943 33.3973C23.6805 33.4072 24.2671 33.3992 24.9372 33.3992C24.9372 33.7481 24.9372 34.0126 24.9372 34.2771C24.9374 36.4517 24.9291 38.6264 24.9424 40.801C24.947 41.5619 25.4227 42.0268 26.1101 42.0082C26.859 41.988 27.1576 41.6586 27.1619 40.8172C27.1685 39.5569 27.1637 38.2965 27.1638 36.8878ZM45.3947 40.7645C45.2051 39.9982 44.7332 39.707 43.9368 39.7683C43.1131 39.8316 42.2808 39.7823 41.4138 39.7823C41.4138 38.8144 41.4139 37.9753 41.4137 37.1361C41.4134 35.5287 41.4262 33.9213 41.4062 32.3142C41.3978 31.6385 40.9282 31.1808 40.3213 31.1735C39.5969 31.1648 39.2009 31.464 39.1967 32.1372C39.1786 35.0055 39.1785 37.8741 39.1963 40.7424C39.2006 41.4334 39.6854 41.8556 40.377 41.8588C41.5639 41.8643 42.7533 41.8145 43.937 41.8765C44.7327 41.9183 45.205 41.6448 45.3947 40.7645Z" fill="white"/>
<path d="M51.1018 32.5374C51.4258 32.165 51.6813 31.7951 52.0081 31.5057C52.5648 31.0128 53.2176 31.0898 53.6888 31.6462C54.0531 32.0764 53.8961 32.8931 53.394 33.3517C52.4676 34.1978 51.5569 35.0609 50.577 35.9753C51.2871 36.8844 51.9568 37.7436 52.6284 38.6013C53.005 39.0822 53.392 39.5553 53.7609 40.042C54.1885 40.6062 54.1129 41.3557 53.6029 41.7599C53.0872 42.1686 52.3933 42.0779 51.9295 41.4895C51.0525 40.3768 50.208 39.2385 49.3338 38.1236C49.2024 37.956 48.9833 37.8572 48.8047 37.7266C48.667 37.9637 48.428 38.1935 48.4103 38.4393C48.3574 39.1774 48.3957 39.9217 48.3892 40.6636C48.3815 41.5466 47.9708 42.0077 47.2048 42.008C46.4374 42.0084 46.0192 41.548 46.0176 40.6669C46.0125 37.9466 46.0121 35.2263 46.0179 32.506C46.0198 31.6055 46.4849 31.0495 47.204 31.0508C47.9076 31.0521 48.3832 31.6411 48.3893 32.5331C48.3949 33.3667 48.3905 34.2002 48.3905 35.0338C48.45 35.0726 48.5095 35.1114 48.5689 35.1502C49.4011 34.2922 50.2333 33.4342 51.1018 32.5374Z" fill="#8592A7"/>
<path d="M35.8154 40.3121C35.5885 40.0987 35.3933 39.8123 35.1864 39.8035C34.0998 39.7577 33.0093 39.758 31.9226 39.8028C31.7117 39.8115 31.4426 40.0479 31.3226 40.2514C31.1276 40.5819 31.0553 40.9821 30.8918 41.3346C30.6356 41.8874 29.9767 42.1724 29.4849 41.9749C29.014 41.7858 28.6735 41.0729 28.8657 40.545C29.5662 38.6208 30.2884 36.7044 31.01 34.7879C31.345 33.8982 31.7059 33.0182 32.039 32.1278C32.3138 31.3933 32.8811 31.173 33.6008 31.1699C34.3501 31.1667 34.9026 31.5349 35.1507 32.1923C36.1835 34.9293 37.1762 37.6815 38.1647 40.4349C38.4519 41.235 38.2484 41.7564 37.6467 41.9629C36.9568 42.1997 36.3642 41.8883 36.0858 41.1331C35.9931 40.8819 35.9224 40.6227 35.8154 40.3121ZM34.3076 35.5206C34.1396 34.9988 33.9717 34.477 33.7462 33.7765C33.2652 35.2233 32.8404 36.5015 32.4045 37.813C33.321 37.813 34.1497 37.813 35.0768 37.813C34.8256 37.0427 34.5945 36.334 34.3076 35.5206Z" fill="#8592A7"/>
<path d="M27.164 36.9607C27.1639 38.2952 27.1687 39.5555 27.1621 40.8158C27.1578 41.6573 26.8592 41.9866 26.1103 42.0069C25.423 42.0255 24.9472 41.5606 24.9426 40.7996C24.9293 38.6251 24.9376 36.4504 24.9374 34.2757C24.9374 34.0113 24.9374 33.7468 24.9374 33.3979C24.2673 33.3979 23.6807 33.4059 23.0945 33.3959C22.2893 33.3822 21.8125 32.9256 21.8214 32.1946C21.8301 31.4791 22.185 31.175 23.0425 31.1731C25.0442 31.1688 27.0459 31.169 29.0475 31.173C29.9231 31.1748 30.2694 31.4584 30.2809 32.1594C30.2938 32.9454 29.8433 33.3829 28.9909 33.3962C28.4245 33.4051 27.8578 33.3979 27.164 33.3979C27.164 34.5873 27.164 35.7369 27.164 36.9607Z" fill="#8592A7"/>
<path d="M45.3953 40.82C45.2056 41.6433 44.7333 41.9168 43.9375 41.8751C42.7538 41.813 41.5645 41.8629 40.3776 41.8574C39.686 41.8541 39.2012 41.432 39.1969 40.7409C39.1791 37.8726 39.1792 35.0041 39.1972 32.1357C39.2014 31.4626 39.5975 31.1633 40.3219 31.1721C40.9287 31.1794 41.3984 31.6371 41.4068 32.3127C41.4267 33.9198 41.414 35.5273 41.4143 37.1346C41.4145 37.9738 41.4143 38.813 41.4143 39.7809C42.2814 39.7809 43.1137 39.8301 43.9374 39.7668C44.7338 39.7056 45.2056 39.9967 45.3953 40.82Z" fill="#8592A7"/>
<path d="M34.3358 35.5739C34.5948 36.3349 34.8259 37.0436 35.0771 37.8139C34.15 37.8139 33.3213 37.8139 32.4048 37.8139C32.8407 36.5024 33.2656 35.2242 33.7465 33.7773C33.972 34.4779 34.1399 34.9997 34.3358 35.5739Z" fill="white"/>
</g>
<defs>
<clipPath id="clip0_338_32825">
<rect width="76" height="76" fill="white"/>
</clipPath>
</defs>
</svg>
